<svg width="512" height="512" viewBox="0 0 512 512" fill="none" xmlns="http://www.w3.org/2000/svg">
<rect width="512" height="512" rx="66.56" fill="url(#paint0_linear_9130_303312)"/>
<path d="M163.864 155.079C163.487 151.271 161.87 148.313 159.013 146.204C156.155 144.096 152.277 143.041 147.379 143.041C144.05 143.041 141.24 143.513 138.947 144.458C136.655 145.37 134.897 146.645 133.672 148.281C132.479 149.918 131.882 151.775 131.882 153.852C131.819 155.583 132.181 157.094 132.966 158.384C133.782 159.674 134.897 160.792 136.31 161.736C137.723 162.648 139.356 163.451 141.208 164.143C143.061 164.804 145.039 165.371 147.143 165.843L155.81 167.92C160.017 168.864 163.88 170.123 167.397 171.697C170.913 173.27 173.959 175.206 176.534 177.503C179.109 179.801 181.103 182.507 182.516 185.623C183.96 188.739 184.698 192.311 184.73 196.339C184.698 202.256 183.191 207.386 180.208 211.729C177.256 216.041 172.986 219.392 167.397 221.784C161.839 224.145 155.135 225.325 147.284 225.325C139.497 225.325 132.714 224.129 126.937 221.737C121.19 219.345 116.7 215.805 113.466 211.115C110.263 206.394 108.583 200.556 108.426 193.601H128.161C128.381 196.843 129.307 199.549 130.94 201.721C132.604 203.861 134.818 205.482 137.581 206.583C140.376 207.653 143.532 208.188 147.049 208.188C150.503 208.188 153.502 207.685 156.045 206.678C158.62 205.671 160.614 204.27 162.027 202.476C163.44 200.682 164.147 198.621 164.147 196.292C164.147 194.12 163.503 192.295 162.215 190.816C160.959 189.337 159.107 188.078 156.657 187.039C154.24 186.001 151.272 185.056 147.755 184.207L137.252 181.563C129.119 179.58 122.697 176.48 117.987 172.263C113.277 168.046 110.938 162.365 110.969 155.221C110.938 149.367 112.492 144.253 115.632 139.878C118.804 135.504 123.153 132.089 128.679 129.634C134.206 127.18 140.486 125.952 147.52 125.952C154.679 125.952 160.928 127.18 166.266 129.634C171.636 132.089 175.812 135.504 178.795 139.878C181.778 144.253 183.317 149.32 183.411 155.079H163.864Z" fill="#FEFEFE"/>
<path d="M217.594 225.325L189.85 125.952H212.244L228.294 194.999H229.099L246.806 125.952H265.981L283.641 195.144H284.493L300.544 125.952H322.938L295.194 225.325H275.214L256.749 160.354H255.991L237.574 225.325H217.594Z" fill="#FEFEFE"/>
<path d="M383.497 155.079C383.12 151.271 381.503 148.313 378.645 146.204C375.788 144.096 371.91 143.041 367.011 143.041C363.683 143.041 360.872 143.513 358.58 144.458C356.288 145.37 354.529 146.645 353.305 148.281C352.112 149.918 351.515 151.775 351.515 153.852C351.452 155.583 351.813 157.094 352.598 158.384C353.415 159.674 354.53 160.792 355.943 161.736C357.356 162.648 358.988 163.451 360.841 164.143C362.694 164.804 364.672 165.371 366.776 165.843L375.442 167.92C379.65 168.864 383.512 170.123 387.029 171.697C390.546 173.27 393.592 175.206 396.167 177.503C398.742 179.801 400.736 182.507 402.149 185.623C403.593 188.739 404.331 192.311 404.363 196.339C404.331 202.256 402.824 207.386 399.841 211.729C396.889 216.041 392.619 219.392 387.029 221.784C381.471 224.145 374.767 225.325 366.917 225.325C359.13 225.325 352.347 224.129 346.569 221.737C340.823 219.345 336.333 215.805 333.098 211.115C329.896 206.394 328.216 200.556 328.059 193.601H347.794C348.014 196.843 348.94 199.549 350.573 201.721C352.237 203.861 354.451 205.482 357.214 206.583C360.009 207.653 363.165 208.188 366.682 208.188C370.136 208.188 373.134 207.685 375.678 206.678C378.253 205.671 380.247 204.27 381.66 202.476C383.073 200.682 383.779 198.621 383.779 196.292C383.779 194.12 383.136 192.295 381.848 190.816C380.592 189.337 378.74 188.078 376.29 187.039C373.872 186.001 370.905 185.056 367.388 184.207L356.885 181.563C348.752 179.58 342.33 176.48 337.62 172.263C332.91 168.046 330.571 162.365 330.602 155.221C330.571 149.367 332.125 144.253 335.265 139.878C338.437 135.504 342.786 132.089 348.312 129.634C353.839 127.18 360.119 125.952 367.153 125.952C374.312 125.952 380.561 127.18 385.899 129.634C391.268 132.089 395.445 135.504 398.428 139.878C401.411 144.253 402.95 149.32 403.044 155.079H383.497Z" fill="#FEFEFE"/>
<rect x="74.752" y="257.069" width="363.286" height="128.423" rx="64.2117" fill="#FEFEFE"/>
<path d="M135.146 349.2V344.291L153.583 324.109C155.746 321.746 157.528 319.691 158.928 317.946C160.328 316.182 161.365 314.527 162.037 312.982C162.728 311.418 163.074 309.782 163.074 308.073C163.074 306.109 162.601 304.409 161.656 302.973C160.728 301.537 159.456 300.427 157.837 299.646C156.219 298.864 154.401 298.473 152.383 298.473C150.237 298.473 148.365 298.918 146.765 299.809C145.183 300.682 143.956 301.909 143.083 303.491C142.228 305.073 141.801 306.927 141.801 309.055H135.365C135.365 305.782 136.119 302.909 137.628 300.437C139.137 297.964 141.192 296.037 143.792 294.655C146.41 293.273 149.346 292.582 152.601 292.582C155.874 292.582 158.774 293.273 161.301 294.655C163.828 296.037 165.81 297.9 167.246 300.246C168.683 302.591 169.401 305.2 169.401 308.073C169.401 310.127 169.028 312.137 168.283 314.1C167.556 316.046 166.283 318.218 164.465 320.618C162.665 323 160.165 325.909 156.965 329.346L144.419 342.764V343.2H170.383V349.2H135.146ZM187.223 349.2H180.132L200.641 293.346H207.623L228.132 349.2H221.041L204.35 302.182H203.914L187.223 349.2ZM189.841 327.382H218.423V333.382H189.841V327.382ZM239.136 349.2V293.346H258.009C262.391 293.346 265.973 294.137 268.754 295.718C271.554 297.282 273.627 299.4 274.973 302.073C276.318 304.746 276.991 307.727 276.991 311.018C276.991 314.309 276.318 317.3 274.973 319.991C273.645 322.682 271.591 324.827 268.809 326.427C266.027 328.009 262.464 328.8 258.118 328.8H244.591V322.8H257.9C260.9 322.8 263.309 322.282 265.127 321.246C266.945 320.209 268.264 318.809 269.082 317.046C269.918 315.264 270.336 313.255 270.336 311.018C270.336 308.782 269.918 306.782 269.082 305.018C268.264 303.255 266.936 301.873 265.1 300.873C263.264 299.855 260.827 299.346 257.791 299.346H245.9V349.2H239.136ZM290.19 349.2V293.346H309.063C313.445 293.346 317.027 294.137 319.808 295.718C322.608 297.282 324.681 299.4 326.027 302.073C327.372 304.746 328.045 307.727 328.045 311.018C328.045 314.309 327.372 317.3 326.027 319.991C324.699 322.682 322.645 324.827 319.863 326.427C317.081 328.009 313.518 328.8 309.172 328.8H295.645V322.8H308.954C311.954 322.8 314.363 322.282 316.181 321.246C317.999 320.209 319.318 318.809 320.136 317.046C320.972 315.264 321.39 313.255 321.39 311.018C321.39 308.782 320.972 306.782 320.136 305.018C319.318 303.255 317.99 301.873 316.154 300.873C314.318 299.855 311.881 299.346 308.845 299.346H296.954V349.2H290.19ZM371.79 307.309C371.462 304.546 370.135 302.4 367.808 300.873C365.481 299.346 362.626 298.582 359.244 298.582C356.772 298.582 354.608 298.982 352.753 299.782C350.917 300.582 349.481 301.682 348.444 303.082C347.426 304.482 346.917 306.073 346.917 307.855C346.917 309.346 347.272 310.627 347.981 311.7C348.708 312.755 349.635 313.637 350.762 314.346C351.89 315.037 353.072 315.609 354.308 316.064C355.544 316.5 356.681 316.855 357.717 317.127L363.39 318.655C364.844 319.037 366.462 319.564 368.244 320.237C370.044 320.909 371.762 321.827 373.399 322.991C375.053 324.137 376.417 325.609 377.49 327.409C378.562 329.209 379.099 331.418 379.099 334.037C379.099 337.055 378.308 339.782 376.726 342.218C375.162 344.655 372.872 346.591 369.853 348.027C366.853 349.464 363.208 350.182 358.917 350.182C354.917 350.182 351.453 349.537 348.526 348.246C345.617 346.955 343.326 345.155 341.653 342.846C339.999 340.537 339.062 337.855 338.844 334.8H345.826C346.008 336.909 346.717 338.655 347.953 340.037C349.208 341.4 350.79 342.418 352.699 343.091C354.626 343.746 356.699 344.073 358.917 344.073C361.499 344.073 363.817 343.655 365.872 342.818C367.926 341.964 369.553 340.782 370.753 339.273C371.953 337.746 372.553 335.964 372.553 333.927C372.553 332.073 372.035 330.564 370.999 329.4C369.962 328.237 368.599 327.291 366.908 326.564C365.217 325.837 363.39 325.2 361.426 324.655L354.553 322.691C350.19 321.437 346.735 319.646 344.19 317.318C341.644 314.991 340.372 311.946 340.372 308.182C340.372 305.055 341.217 302.327 342.908 300C344.617 297.655 346.908 295.837 349.781 294.546C352.672 293.237 355.899 292.582 359.462 292.582C363.062 292.582 366.262 293.227 369.062 294.518C371.862 295.791 374.081 297.537 375.717 299.755C377.372 301.973 378.244 304.491 378.335 307.309H371.79Z" fill="#9B6DC0"/>
<defs>
<linearGradient id="paint0_linear_9130_303312" x1="0" y1="0" x2="512" y2="512" gradientUnits="userSpaceOnUse">
<stop stop-color="#AA84C9"/>
<stop offset="1" stop-color="#9565BC"/>
</linearGradient>
</defs>
</svg>
