<svg width="512" height="512" viewBox="0 0 512 512" fill="none" xmlns="http://www.w3.org/2000/svg">
<g clip-path="url(#clip0_4686_181581)">
<rect x="71.7481" y="71.4049" width="368.504" height="369.19" fill="#FEFEFE"/>
<path fill-rule="evenodd" clip-rule="evenodd" d="M429.033 172.237L258.976 172.237C211.414 172.237 172.857 133.68 172.857 86.1184C172.857 38.5565 211.414 -0.000135422 258.976 -0.000130653L379.305 -0.000121117V-13.985C403.363 -13.985 423.901 -8.74166 441.122 -0.000115395L512 -0.000109673V111.959C512.15 114.427 512.225 116.863 512.225 119.259V260.252C512.225 213.232 475.41 174.81 429.033 172.237Z" fill="url(#paint0_linear_4686_181581)"/>
<path fill-rule="evenodd" clip-rule="evenodd" d="M163.447 -10.5742H-10.667V136.012H-0.0887661L-0.0887709 252.643C-0.0887728 300.503 38.709 339.301 86.5684 339.301C134.428 339.301 173.226 300.503 173.226 252.643V87.2143C173.439 38.7111 212.824 -0.542381 261.377 -0.542383L163.447 -0.542378V-10.5742Z" fill="url(#paint1_linear_4686_181581)"/>
<path fill-rule="evenodd" clip-rule="evenodd" d="M83.1218 338.65L252.671 338.65C300.541 338.65 339.346 377.456 339.346 425.325C339.346 473.194 300.54 512 252.671 512L-0.000249945 512L-0.000227995 384.604C-0.0592687 383.093 -0.0886803 381.595 -0.0886802 380.113L-0.0886841 250.656C-0.0769118 297.673 36.7429 336.087 83.1218 338.65Z" fill="url(#paint2_linear_4686_181581)"/>
<path fill-rule="evenodd" clip-rule="evenodd" d="M395.905 512L512 512V434.858C518.731 419.239 522.668 401.104 522.668 380.32H512V258.489C512 210.655 473.223 171.878 425.389 171.878C377.555 171.877 338.778 210.655 338.778 258.489L338.778 380.32H338.777V423.952C338.777 472.637 299.309 512.104 250.624 512.104H390.994C392.614 512.104 394.252 512.069 395.905 512Z" fill="url(#paint3_linear_4686_181581)"/>
</g>
<defs>
<linearGradient id="paint0_linear_4686_181581" x1="197.854" y1="63.7077" x2="424.593" y2="258.44" gradientUnits="userSpaceOnUse">
<stop stop-color="#EEAF35"/>
<stop offset="1" stop-color="#FBC93C"/>
</linearGradient>
<linearGradient id="paint1_linear_4686_181581" x1="167.112" y1="13.04" x2="90.6255" y2="343.767" gradientUnits="userSpaceOnUse">
<stop stop-color="#AC6CBB"/>
<stop offset="1" stop-color="#7D5FBD"/>
</linearGradient>
<linearGradient id="paint2_linear_4686_181581" x1="-10.6665" y1="241.968" x2="281.726" y2="533.389" gradientUnits="userSpaceOnUse">
<stop stop-color="#0ABBE5"/>
<stop offset="1" stop-color="#3B98CC"/>
</linearGradient>
<linearGradient id="paint3_linear_4686_181581" x1="433.777" y1="166.489" x2="327.797" y2="521.001" gradientUnits="userSpaceOnUse">
<stop stop-color="#5C9B1C"/>
<stop offset="1" stop-color="#50B600"/>
</linearGradient>
<clipPath id="clip0_4686_181581">
<rect y="-1.52588e-05" width="512" height="512" rx="144" fill="white"/>
</clipPath>
</defs>
</svg>
